<svg xmlns="http://www.w3.org/2000/svg" width="600" height="254" viewBox="0 0 600 254" role="img" aria-label="z0gcode: coding agent on 0G">
  <defs>
    <linearGradient id="shineGrad" x1="0" y1="0" x2="1" y2="0">
      <stop offset="0" stop-color="#fff" stop-opacity="0"/>
      <stop offset="0.45" stop-color="#fff" stop-opacity="0.95"/>
      <stop offset="0.55" stop-color="#fff" stop-opacity="0.95"/>
      <stop offset="1" stop-color="#fff" stop-opacity="0"/>
    </linearGradient>
    <mask id="markMask" maskUnits="userSpaceOnUse" x="-20" y="-20" width="382" height="190">
      <rect x="0" y="0" width="18" height="30" fill="#fff"/>
      <rect x="18" y="0" width="18" height="30" fill="#fff"/>
      <rect x="36" y="0" width="18" height="30" fill="#fff"/>
      <rect x="54" y="0" width="18" height="30" fill="#fff"/>
      <rect x="72" y="0" width="18" height="30" fill="#fff"/>
      <rect x="144" y="0" width="18" height="30" fill="#fff"/>
      <rect x="162" y="0" width="18" height="30" fill="#fff"/>
      <rect x="180" y="0" width="18" height="30" fill="#fff"/>
      <rect x="270" y="0" width="18" height="30" fill="#fff"/>
      <rect x="288" y="0" width="18" height="30" fill="#fff"/>
      <rect x="306" y="0" width="18" height="30" fill="#fff"/>
      <rect x="324" y="0" width="18" height="30" fill="#fff"/>
      <rect x="54" y="30" width="18" height="30" fill="#fff"/>
      <rect x="72" y="30" width="18" height="30" fill="#fff"/>
      <rect x="126" y="30" width="18" height="30" fill="#fff"/>
      <rect x="180" y="30" width="18" height="30" fill="#fff"/>
      <rect x="198" y="30" width="18" height="30" fill="#fff"/>
      <rect x="252" y="30" width="18" height="30" fill="#fff"/>
      <rect x="36" y="60" width="18" height="30" fill="#fff"/>
      <rect x="54" y="60" width="18" height="30" fill="#fff"/>
      <rect x="126" y="60" width="18" height="30" fill="#fff"/>
      <rect x="162" y="60" width="18" height="30" fill="#fff"/>
      <rect x="198" y="60" width="18" height="30" fill="#fff"/>
      <rect x="252" y="60" width="18" height="30" fill="#fff"/>
      <rect x="306" y="60" width="18" height="30" fill="#fff"/>
      <rect x="324" y="60" width="18" height="30" fill="#fff"/>
      <rect x="18" y="90" width="18" height="30" fill="#fff"/>
      <rect x="36" y="90" width="18" height="30" fill="#fff"/>
      <rect x="126" y="90" width="18" height="30" fill="#fff"/>
      <rect x="144" y="90" width="18" height="30" fill="#fff"/>
      <rect x="198" y="90" width="18" height="30" fill="#fff"/>
      <rect x="252" y="90" width="18" height="30" fill="#fff"/>
      <rect x="324" y="90" width="18" height="30" fill="#fff"/>
      <rect x="0" y="120" width="18" height="30" fill="#fff"/>
      <rect x="18" y="120" width="18" height="30" fill="#fff"/>
      <rect x="36" y="120" width="18" height="30" fill="#fff"/>
      <rect x="54" y="120" width="18" height="30" fill="#fff"/>
      <rect x="72" y="120" width="18" height="30" fill="#fff"/>
      <rect x="144" y="120" width="18" height="30" fill="#fff"/>
      <rect x="162" y="120" width="18" height="30" fill="#fff"/>
      <rect x="180" y="120" width="18" height="30" fill="#fff"/>
      <rect x="270" y="120" width="18" height="30" fill="#fff"/>
      <rect x="288" y="120" width="18" height="30" fill="#fff"/>
      <rect x="306" y="120" width="18" height="30" fill="#fff"/>
      <rect x="324" y="120" width="18" height="30" fill="#fff"/>
    </mask>
  </defs>
  <rect x="0.5" y="0.5" width="599" height="253" rx="14" fill="#0d1117" stroke="#21262d"/>
  <g transform="translate(129,30)"><animate attributeName="opacity" begin="0s" dur="0.5s" from="0" to="1" fill="freeze"/>
    <rect x="0" y="0" width="18" height="30" fill="#F2F1EC"/>
    <rect x="18" y="0" width="18" height="30" fill="#F2F1EC"/>
    <rect x="36" y="0" width="18" height="30" fill="#F2F1EC"/>
    <rect x="54" y="0" width="18" height="30" fill="#F2F1EC"/>
    <rect x="72" y="0" width="18" height="30" fill="#F2F1EC"/>
    <rect x="270" y="0" width="18" height="30" fill="#F2F1EC"/>
    <rect x="288" y="0" width="18" height="30" fill="#F2F1EC"/>
    <rect x="306" y="0" width="18" height="30" fill="#F2F1EC"/>
    <rect x="324" y="0" width="18" height="30" fill="#F2F1EC"/>
    <rect x="54" y="30" width="18" height="30" fill="#F2F1EC"/>
    <rect x="72" y="30" width="18" height="30" fill="#F2F1EC"/>
    <rect x="252" y="30" width="18" height="30" fill="#F2F1EC"/>
    <rect x="36" y="60" width="18" height="30" fill="#F2F1EC"/>
    <rect x="54" y="60" width="18" height="30" fill="#F2F1EC"/>
    <rect x="252" y="60" width="18" height="30" fill="#F2F1EC"/>
    <rect x="306" y="60" width="18" height="30" fill="#F2F1EC"/>
    <rect x="324" y="60" width="18" height="30" fill="#F2F1EC"/>
    <rect x="18" y="90" width="18" height="30" fill="#F2F1EC"/>
    <rect x="36" y="90" width="18" height="30" fill="#F2F1EC"/>
    <rect x="252" y="90" width="18" height="30" fill="#F2F1EC"/>
    <rect x="324" y="90" width="18" height="30" fill="#F2F1EC"/>
    <rect x="0" y="120" width="18" height="30" fill="#F2F1EC"/>
    <rect x="18" y="120" width="18" height="30" fill="#F2F1EC"/>
    <rect x="36" y="120" width="18" height="30" fill="#F2F1EC"/>
    <rect x="54" y="120" width="18" height="30" fill="#F2F1EC"/>
    <rect x="72" y="120" width="18" height="30" fill="#F2F1EC"/>
    <rect x="270" y="120" width="18" height="30" fill="#F2F1EC"/>
    <rect x="288" y="120" width="18" height="30" fill="#F2F1EC"/>
    <rect x="306" y="120" width="18" height="30" fill="#F2F1EC"/>
    <rect x="324" y="120" width="18" height="30" fill="#F2F1EC"/>
    <rect x="144" y="0" width="18" height="30" fill="#A78BFF"/>
    <rect x="162" y="0" width="18" height="30" fill="#A78BFF"/>
    <rect x="180" y="0" width="18" height="30" fill="#A78BFF"/>
    <rect x="126" y="30" width="18" height="30" fill="#A78BFF"/>
    <rect x="180" y="30" width="18" height="30" fill="#A78BFF"/>
    <rect x="198" y="30" width="18" height="30" fill="#A78BFF"/>
    <rect x="126" y="60" width="18" height="30" fill="#A78BFF"/>
    <rect x="162" y="60" width="18" height="30" fill="#A78BFF"/>
    <rect x="198" y="60" width="18" height="30" fill="#A78BFF"/>
    <rect x="126" y="90" width="18" height="30" fill="#A78BFF"/>
    <rect x="144" y="90" width="18" height="30" fill="#A78BFF"/>
    <rect x="198" y="90" width="18" height="30" fill="#A78BFF"/>
    <rect x="144" y="120" width="18" height="30" fill="#A78BFF"/>
    <rect x="162" y="120" width="18" height="30" fill="#A78BFF"/>
    <rect x="180" y="120" width="18" height="30" fill="#A78BFF"/>
    <rect x="-108" y="-14" width="90" height="178" fill="url(#shineGrad)" mask="url(#markMask)">
      <animate attributeName="x" begin="0.7s" dur="4.4s" repeatCount="indefinite" keyTimes="0;0.5;0.78;1" values="-108;-108;522;522"/>
    </rect>
  </g>
  <style>
    .sub{font-family:'SFMono-Regular',Consolas,'Liberation Mono',Menlo,monospace;font-size:20px}
    .strap{font-family:'SFMono-Regular',Consolas,'Liberation Mono',Menlo,monospace;font-size:16px;fill:#6B7080}
  </style>
  <text class="sub" x="300" y="207" text-anchor="middle"><tspan fill="#F2F1EC">z0gcode</tspan><tspan fill="#6B7080"> v0.2  ·  coding agent on 0G</tspan></text>
  <text class="strap" x="300" y="234" text-anchor="middle" xml:space="preserve">model 0gm-1.0-35b-a3b  ·  router-api.0g.ai  <tspan fill="#A78BFF">◈</tspan> TEE</text>
</svg>
