<svg xmlns="http://www.w3.org/2000/svg" width="600" height="254" viewBox="0 0 600 254" role="img" aria-label="z0gcode: coding agent on 0G">
  <defs>
    <linearGradient id="shineGrad" x1="0" y1="0" x2="1" y2="0">
      <stop offset="0" stop-color="#fff" stop-opacity="0"/>
      <stop offset="0.45" stop-color="#fff" stop-opacity="0.95"/>
      <stop offset="0.55" stop-color="#fff" stop-opacity="0.95"/>
      <stop offset="1" stop-color="#fff" stop-opacity="0"/>
    </linearGradient>
    <mask id="markMask" maskUnits="userSpaceOnUse" x="-16" y="-16" width="300" height="180">
      <rect x="0" y="0" width="14" height="29" fill="#fff"/>
    <rect x="14" y="0" width="14" height="29" fill="#fff"/>
    <rect x="28" y="0" width="14" height="29" fill="#fff"/>
    <rect x="42" y="0" width="14" height="29" fill="#fff"/>
    <rect x="56" y="0" width="14" height="29" fill="#fff"/>
    <rect x="210" y="0" width="14" height="29" fill="#fff"/>
    <rect x="224" y="0" width="14" height="29" fill="#fff"/>
    <rect x="238" y="0" width="14" height="29" fill="#fff"/>
    <rect x="252" y="0" width="14" height="29" fill="#fff"/>
    <rect x="42" y="29" width="14" height="29" fill="#fff"/>
    <rect x="56" y="29" width="14" height="29" fill="#fff"/>
    <rect x="196" y="29" width="14" height="29" fill="#fff"/>
    <rect x="28" y="58" width="14" height="29" fill="#fff"/>
    <rect x="42" y="58" width="14" height="29" fill="#fff"/>
    <rect x="196" y="58" width="14" height="29" fill="#fff"/>
    <rect x="238" y="58" width="14" height="29" fill="#fff"/>
    <rect x="252" y="58" width="14" height="29" fill="#fff"/>
    <rect x="14" y="87" width="14" height="29" fill="#fff"/>
    <rect x="28" y="87" width="14" height="29" fill="#fff"/>
    <rect x="196" y="87" width="14" height="29" fill="#fff"/>
    <rect x="252" y="87" width="14" height="29" fill="#fff"/>
    <rect x="0" y="116" width="14" height="29" fill="#fff"/>
    <rect x="14" y="116" width="14" height="29" fill="#fff"/>
    <rect x="28" y="116" width="14" height="29" fill="#fff"/>
    <rect x="42" y="116" width="14" height="29" fill="#fff"/>
    <rect x="56" y="116" width="14" height="29" fill="#fff"/>
    <rect x="210" y="116" width="14" height="29" fill="#fff"/>
    <rect x="224" y="116" width="14" height="29" fill="#fff"/>
    <rect x="238" y="116" width="14" height="29" fill="#fff"/>
    <rect x="252" y="116" width="14" height="29" fill="#fff"/>
    <rect x="112" y="0" width="14" height="29" fill="#fff"/>
    <rect x="126" y="0" width="14" height="29" fill="#fff"/>
    <rect x="140" y="0" width="14" height="29" fill="#fff"/>
    <rect x="98" y="29" width="14" height="29" fill="#fff"/>
    <rect x="154" y="29" width="14" height="29" fill="#fff"/>
    <rect x="98" y="58" width="14" height="29" fill="#fff"/>
    <rect x="154" y="58" width="14" height="29" fill="#fff"/>
    <rect x="98" y="87" width="14" height="29" fill="#fff"/>
    <rect x="154" y="87" width="14" height="29" fill="#fff"/>
    <rect x="112" y="116" width="14" height="29" fill="#fff"/>
    <rect x="126" y="116" width="14" height="29" fill="#fff"/>
    <rect x="140" y="116" width="14" height="29" fill="#fff"/>
    <line x1="112" y1="116" x2="154" y2="29" stroke="#fff" stroke-width="11" stroke-linecap="round"/>
    </mask>
  </defs>
  <rect x="0.5" y="0.5" width="599" height="253" rx="14" fill="#0d1117" stroke="#21262d"/>
  <g transform="translate(167,28)"><animate attributeName="opacity" begin="0s" dur="0.5s" from="0" to="1" fill="freeze"/>
    <rect x="0" y="0" width="14" height="29" fill="#F2F1EC"/>
    <rect x="14" y="0" width="14" height="29" fill="#F2F1EC"/>
    <rect x="28" y="0" width="14" height="29" fill="#F2F1EC"/>
    <rect x="42" y="0" width="14" height="29" fill="#F2F1EC"/>
    <rect x="56" y="0" width="14" height="29" fill="#F2F1EC"/>
    <rect x="210" y="0" width="14" height="29" fill="#F2F1EC"/>
    <rect x="224" y="0" width="14" height="29" fill="#F2F1EC"/>
    <rect x="238" y="0" width="14" height="29" fill="#F2F1EC"/>
    <rect x="252" y="0" width="14" height="29" fill="#F2F1EC"/>
    <rect x="42" y="29" width="14" height="29" fill="#F2F1EC"/>
    <rect x="56" y="29" width="14" height="29" fill="#F2F1EC"/>
    <rect x="196" y="29" width="14" height="29" fill="#F2F1EC"/>
    <rect x="28" y="58" width="14" height="29" fill="#F2F1EC"/>
    <rect x="42" y="58" width="14" height="29" fill="#F2F1EC"/>
    <rect x="196" y="58" width="14" height="29" fill="#F2F1EC"/>
    <rect x="238" y="58" width="14" height="29" fill="#F2F1EC"/>
    <rect x="252" y="58" width="14" height="29" fill="#F2F1EC"/>
    <rect x="14" y="87" width="14" height="29" fill="#F2F1EC"/>
    <rect x="28" y="87" width="14" height="29" fill="#F2F1EC"/>
    <rect x="196" y="87" width="14" height="29" fill="#F2F1EC"/>
    <rect x="252" y="87" width="14" height="29" fill="#F2F1EC"/>
    <rect x="0" y="116" width="14" height="29" fill="#F2F1EC"/>
    <rect x="14" y="116" width="14" height="29" fill="#F2F1EC"/>
    <rect x="28" y="116" width="14" height="29" fill="#F2F1EC"/>
    <rect x="42" y="116" width="14" height="29" fill="#F2F1EC"/>
    <rect x="56" y="116" width="14" height="29" fill="#F2F1EC"/>
    <rect x="210" y="116" width="14" height="29" fill="#F2F1EC"/>
    <rect x="224" y="116" width="14" height="29" fill="#F2F1EC"/>
    <rect x="238" y="116" width="14" height="29" fill="#F2F1EC"/>
    <rect x="252" y="116" width="14" height="29" fill="#F2F1EC"/>
    <rect x="112" y="0" width="14" height="29" fill="#A78BFF"/>
    <rect x="126" y="0" width="14" height="29" fill="#A78BFF"/>
    <rect x="140" y="0" width="14" height="29" fill="#A78BFF"/>
    <rect x="98" y="29" width="14" height="29" fill="#A78BFF"/>
    <rect x="154" y="29" width="14" height="29" fill="#A78BFF"/>
    <rect x="98" y="58" width="14" height="29" fill="#A78BFF"/>
    <rect x="154" y="58" width="14" height="29" fill="#A78BFF"/>
    <rect x="98" y="87" width="14" height="29" fill="#A78BFF"/>
    <rect x="154" y="87" width="14" height="29" fill="#A78BFF"/>
    <rect x="112" y="116" width="14" height="29" fill="#A78BFF"/>
    <rect x="126" y="116" width="14" height="29" fill="#A78BFF"/>
    <rect x="140" y="116" width="14" height="29" fill="#A78BFF"/>
    <line x1="112" y1="116" x2="154" y2="29" stroke="#A78BFF" stroke-width="11" stroke-linecap="round"/>
    <rect x="-96" y="-14" width="84" height="176" fill="url(#shineGrad)" mask="url(#markMask)">
      <animate attributeName="x" begin="0.7s" dur="4.4s" repeatCount="indefinite" keyTimes="0;0.5;0.78;1" values="-96;-96;362;362"/>
    </rect>
  </g>
  <style>
    .sub{font-family:'SFMono-Regular',Consolas,'Liberation Mono',Menlo,monospace;font-size:20px}
    .strap{font-family:'SFMono-Regular',Consolas,'Liberation Mono',Menlo,monospace;font-size:16px;fill:#6B7080}
  </style>
  <text class="sub" x="300" y="207" text-anchor="middle"><tspan fill="#F2F1EC">z0gcode</tspan><tspan fill="#6B7080"> v0.2  ·  coding agent on 0G</tspan></text>
  <text class="strap" x="300" y="234" text-anchor="middle" xml:space="preserve">model 0gm-1.0-35b-a3b  ·  router-api.0g.ai  <tspan fill="#A78BFF">◈</tspan> TEE</text>
</svg>
