<svg xmlns="http://www.w3.org/2000/svg" width="820" height="1476" viewBox="0 0 820 1476" font-family="ui-monospace, SFMono-Regular, Menlo, Consolas, 'Liberation Mono', monospace" role="img" aria-label="z0gcode terminal demo: write code, generate an image, transcribe audio, the full 0G model catalog, parallel write subagents, and a verifiable on-chain session, all on 0G Compute">
  <rect x="8" y="8" width="804" height="1460" fill="#0d1017" rx="10" stroke="#30363d"/>
  <rect x="8" y="8" width="804" height="34" rx="10" fill="#161b22"/>
  <rect x="8" y="30" width="804" height="12" fill="#161b22"/>
  <circle cx="28" cy="25" r="6" fill="#ff5f56"/>
  <circle cx="48" cy="25" r="6" fill="#ffbd2e"/>
  <circle cx="68" cy="25" r="6" fill="#27c93f"/>
  <text x="410" y="30" font-size="13" fill="#6b7080" text-anchor="middle">z0gcode · 0G Compute</text>
  <text x="24" y="74" font-size="14" fill="#a78bff" font-weight="700">z0g ›</text>
  <clipPath id="type"><rect x="72" y="60" width="0" height="20"><animate attributeName="width" begin="0.6s" dur="1.5s" from="0" to="540" fill="freeze"/></rect></clipPath>
  <text x="74" y="74" font-size="14" fill="#c9d1d9" clip-path="url(#type)">ship a landing page, make a hero image, and prove it on-chain</text>
  <rect x="74" y="62" width="8" height="15" fill="#a78bff"><animate attributeName="x" begin="0.6s" dur="1.5s" from="74" to="590" fill="freeze"/><animate attributeName="opacity" begin="0.6s" dur="0.6s" values="1;0;1" repeatCount="3"/><animate attributeName="opacity" begin="2.2s" dur="1s" values="1;1;0;0;1" repeatCount="indefinite"/></rect>
  <g opacity="0"><animate attributeName="opacity" begin="0.40s" dur="0.2s" to="1" fill="freeze"/><text x="790" y="74" font-size="11" fill="#a78bff" text-anchor="end" letter-spacing="1">TASK</text></g><g opacity="0"><animate attributeName="opacity" begin="2.40s" dur="0.35s" to="1" fill="freeze"/><line x1="24" y1="122" x2="60" y2="122" stroke="#3fb950" stroke-width="2"/><line x1="60" y1="122" x2="796" y2="122" stroke="#1f2630" stroke-width="1"/><rect x="24" y="133" width="4" height="15" rx="1" fill="#3fb950"/><rect x="26" y="133" width="2" height="121" fill="#3fb950" opacity="0.3"/><text x="42" y="144" font-size="11" fill="#3fb950" letter-spacing="1">01</text><text x="62" y="144" font-size="12.5" fill="#c9d1d9" font-weight="700" letter-spacing="2">WRITE CODE</text><text x="796" y="144" font-size="10.5" fill="#6b7080" text-anchor="end">write_file · run_bash</text></g><g opacity="0"><animate attributeName="opacity" begin="2.75s" dur="0.3s" to="1" fill="freeze"/><text x="44" y="168" font-size="13" fill="#56d4dd">write_file</text><text x="130" y="168" font-size="13" fill="#c9d1d9">src/hero.tsx</text><text x="250" y="168" font-size="13" fill="#6b7080">· 42 lines</text></g><g opacity="0"><animate attributeName="opacity" begin="3.01s" dur="0.3s" to="1" fill="freeze"/><text x="44" y="188" font-size="13" fill="#3fb950">$</text><text x="60" y="188" font-size="13" fill="#c9d1d9">run_bash "npm run build"</text></g><g opacity="0"><animate attributeName="opacity" begin="3.27s" dur="0.3s" to="1" fill="freeze"/><text x="44" y="208" font-size="13" fill="#3fb950">✓ build passed</text></g><g opacity="0"><animate attributeName="opacity" begin="3.53s" dur="0.3s" to="1" fill="freeze"/><text x="44" y="228" font-size="13" fill="#3fb950">+ export function Hero() {</text><text x="44" y="248" font-size="13" fill="#6b7080">- &lt;div class="legacy-hero" /&gt;</text></g><g opacity="0"><animate attributeName="opacity" begin="3.91s" dur="0.35s" to="1" fill="freeze"/><line x1="24" y1="306" x2="60" y2="306" stroke="#a78bff" stroke-width="2"/><line x1="60" y1="306" x2="796" y2="306" stroke="#1f2630" stroke-width="1"/><rect x="24" y="317" width="4" height="15" rx="1" fill="#a78bff"/><rect x="26" y="317" width="2" height="81" fill="#a78bff" opacity="0.3"/><text x="42" y="328" font-size="11" fill="#a78bff" letter-spacing="1">02</text><text x="62" y="328" font-size="12.5" fill="#c9d1d9" font-weight="700" letter-spacing="2">GENERATE IMAGE</text><text x="796" y="328" font-size="10.5" fill="#6b7080" text-anchor="end">generate_image · z-image-turbo</text></g><g opacity="0"><animate attributeName="opacity" begin="4.26s" dur="0.3s" to="1" fill="freeze"/><text x="44" y="352" font-size="13" fill="#56d4dd">generate_image</text><text x="168" y="352" font-size="13" fill="#c9d1d9">"sunset hero, 1536×640"</text></g><g opacity="0"><animate attributeName="opacity" begin="4.52s" dur="0.3s" to="1" fill="freeze"/><text x="44" y="372" font-size="13" fill="#6b7080">z-image-turbo · 1 image · 1536×640</text></g><g opacity="0"><animate attributeName="opacity" begin="4.78s" dur="0.3s" to="1" fill="freeze"/><text x="44" y="392" font-size="13" fill="#3fb950">✓ saved public/hero.png</text><text x="260" y="392" font-size="13" fill="#6b7080">cost </text><text x="296" y="392" font-size="13" fill="#c9d1d9">$0.006</text></g><g opacity="0"><animate attributeName="opacity" begin="5.16s" dur="0.35s" to="1" fill="freeze"/><line x1="24" y1="450" x2="60" y2="450" stroke="#56d4dd" stroke-width="2"/><line x1="60" y1="450" x2="796" y2="450" stroke="#1f2630" stroke-width="1"/><rect x="24" y="461" width="4" height="15" rx="1" fill="#56d4dd"/><rect x="26" y="461" width="2" height="101" fill="#56d4dd" opacity="0.3"/><text x="42" y="472" font-size="11" fill="#56d4dd" letter-spacing="1">03</text><text x="62" y="472" font-size="12.5" fill="#c9d1d9" font-weight="700" letter-spacing="2">TRANSCRIBE AUDIO</text><text x="796" y="472" font-size="10.5" fill="#6b7080" text-anchor="end">transcribe · whisper-large-v3</text></g><g opacity="0"><animate attributeName="opacity" begin="5.51s" dur="0.3s" to="1" fill="freeze"/><text x="44" y="496" font-size="13" fill="#56d4dd">transcribe</text><text x="130" y="496" font-size="13" fill="#c9d1d9">assets/vo.mp3</text></g><g opacity="0"><animate attributeName="opacity" begin="5.77s" dur="0.3s" to="1" fill="freeze"/><text x="44" y="516" font-size="13" fill="#6b7080">whisper-large-v3 · 128s of audio</text></g><g opacity="0"><animate attributeName="opacity" begin="6.03s" dur="0.3s" to="1" fill="freeze"/><text x="44" y="536" font-size="13" fill="#c9d1d9">"welcome to z0gcode, the agent whose brain runs on 0G…"</text></g><g opacity="0"><animate attributeName="opacity" begin="6.29s" dur="0.3s" to="1" fill="freeze"/><text x="44" y="556" font-size="13" fill="#3fb950">✓ transcript.txt</text><text x="200" y="556" font-size="13" fill="#6b7080">cost </text><text x="236" y="556" font-size="13" fill="#c9d1d9">$0.011</text></g><g opacity="0"><animate attributeName="opacity" begin="6.67s" dur="0.35s" to="1" fill="freeze"/><line x1="24" y1="614" x2="60" y2="614" stroke="#a78bff" stroke-width="2"/><line x1="60" y1="614" x2="796" y2="614" stroke="#1f2630" stroke-width="1"/><rect x="24" y="625" width="4" height="15" rx="1" fill="#a78bff"/><rect x="26" y="625" width="2" height="441" fill="#a78bff" opacity="0.3"/><text x="42" y="636" font-size="11" fill="#a78bff" letter-spacing="1">04</text><text x="62" y="636" font-size="12.5" fill="#c9d1d9" font-weight="700" letter-spacing="2">MODEL CATALOG</text><text x="796" y="636" font-size="10.5" fill="#6b7080" text-anchor="end">z0g models · 15 models · 3 tiers</text></g><g opacity="0"><animate attributeName="opacity" begin="7.02s" dur="0.3s" to="1" fill="freeze"/><text x="44" y="660" font-size="11" fill="#a78bff">●</text><text x="58" y="660" font-size="11" fill="#6b7080">priv 0G native</text><text x="190" y="660" font-size="11" fill="#56d4dd">●</text><text x="204" y="660" font-size="11" fill="#6b7080">ver TEE</text><text x="290" y="660" font-size="11" fill="#6b7080">●</text><text x="304" y="660" font-size="11" fill="#6b7080">open proxied</text><text x="792" y="660" font-size="10" fill="#6b7080" text-anchor="end">price per 1M tokens</text></g><g opacity="0"><animate attributeName="opacity" begin="7.28s" dur="0.3s" to="1" fill="freeze"/><text x="60" y="680" font-size="9.5" fill="#6b7080" letter-spacing="0.5">MODEL</text><text x="322" y="680" font-size="9.5" fill="#6b7080" text-anchor="end">CTX</text><text x="402" y="680" font-size="9.5" fill="#6b7080" text-anchor="end">MAX</text><text x="542" y="680" font-size="9.5" fill="#6b7080" text-anchor="end">$IN</text><text x="636" y="680" font-size="9.5" fill="#6b7080" text-anchor="end">$OUT</text><text x="742" y="680" font-size="9.5" fill="#6b7080" text-anchor="end">SAVE</text></g><g opacity="0"><animate attributeName="opacity" begin="7.54s" dur="0.3s" to="1" fill="freeze"/><rect x="24" y="686" width="772" height="20" rx="3" fill="#161b22"/><circle cx="34" cy="696" r="4" fill="#a78bff"/><text x="48" y="700" font-size="10.5" fill="#a78bff" letter-spacing="1.5">0G NATIVE</text><text x="792" y="700" font-size="9.5" fill="#6b7080" text-anchor="end">in-house model</text><circle cx="44" cy="716" r="3.5" fill="#a78bff"/><text x="60" y="720" font-size="12" fill="#c9d1d9">0gm-1.0-35b-a3b</text><text x="322" y="720" font-size="12" fill="#6b7080" text-anchor="end">256K</text><text x="402" y="720" font-size="12" fill="#6b7080" text-anchor="end">32K</text><text x="542" y="720" font-size="12" fill="#c9d1d9" text-anchor="end">$0.080</text><text x="636" y="720" font-size="12" fill="#c9d1d9" text-anchor="end">$0.480</text><text x="742" y="720" font-size="12" fill="#3fb950" text-anchor="end">-50%</text></g><g opacity="0"><animate attributeName="opacity" begin="7.80s" dur="0.3s" to="1" fill="freeze"/><rect x="24" y="726" width="772" height="20" rx="3" fill="#161b22"/><circle cx="34" cy="736" r="4" fill="#56d4dd"/><text x="48" y="740" font-size="10.5" fill="#56d4dd" letter-spacing="1.5">VERIFIABLE · TEE</text><text x="792" y="740" font-size="9.5" fill="#6b7080" text-anchor="end">TEE attestation on 0G Chain</text><rect x="24" y="746" width="772" height="20" fill="#161b22" opacity="0.55"/><circle cx="44" cy="756" r="3.5" fill="#56d4dd"/><text x="60" y="760" font-size="12" fill="#c9d1d9">qwen3-vl-30b</text><text x="322" y="760" font-size="12" fill="#6b7080" text-anchor="end">256K</text><text x="402" y="760" font-size="12" fill="#6b7080" text-anchor="end">32K</text><text x="542" y="760" font-size="12" fill="#c9d1d9" text-anchor="end">$0.019</text><text x="636" y="760" font-size="12" fill="#c9d1d9" text-anchor="end">$0.189</text><text x="736" y="760" font-size="12" fill="#6b7080" text-anchor="end">·</text><circle cx="44" cy="776" r="3.5" fill="#56d4dd"/><text x="60" y="780" font-size="12" fill="#c9d1d9">deepseek-v4-flash</text><text x="322" y="780" font-size="12" fill="#6b7080" text-anchor="end">1M</text><text x="402" y="780" font-size="12" fill="#6b7080" text-anchor="end">384K</text><text x="542" y="780" font-size="12" fill="#c9d1d9" text-anchor="end">$0.121</text><text x="636" y="780" font-size="12" fill="#c9d1d9" text-anchor="end">$0.242</text><text x="742" y="780" font-size="12" fill="#3fb950" text-anchor="end">-12%</text><rect x="24" y="786" width="772" height="20" fill="#161b22" opacity="0.55"/><circle cx="44" cy="796" r="3.5" fill="#56d4dd"/><text x="60" y="800" font-size="12" fill="#c9d1d9">qwen3.7-plus</text><text x="322" y="800" font-size="12" fill="#6b7080" text-anchor="end">1M</text><text x="402" y="800" font-size="12" fill="#6b7080" text-anchor="end">64K</text><text x="542" y="800" font-size="12" fill="#c9d1d9" text-anchor="end">$0.221</text><text x="636" y="800" font-size="12" fill="#c9d1d9" text-anchor="end">$0.881</text><text x="742" y="800" font-size="12" fill="#3fb950" text-anchor="end">-45%</text><circle cx="44" cy="816" r="3.5" fill="#56d4dd"/><text x="60" y="820" font-size="12" fill="#c9d1d9">qwen3.6-plus</text><text x="322" y="820" font-size="12" fill="#6b7080" text-anchor="end">1M</text><text x="402" y="820" font-size="12" fill="#6b7080" text-anchor="end">64K</text><text x="542" y="820" font-size="12" fill="#c9d1d9" text-anchor="end">$0.243</text><text x="636" y="820" font-size="12" fill="#c9d1d9" text-anchor="end">$1.453</text><text x="742" y="820" font-size="12" fill="#3fb950" text-anchor="end">-50%</text><rect x="24" y="826" width="772" height="20" fill="#161b22" opacity="0.55"/><circle cx="44" cy="836" r="3.5" fill="#56d4dd"/><text x="60" y="840" font-size="12" fill="#c9d1d9">minimax-m3</text><text x="322" y="840" font-size="12" fill="#6b7080" text-anchor="end">1M</text><text x="402" y="840" font-size="12" fill="#6b7080" text-anchor="end">128K</text><text x="542" y="840" font-size="12" fill="#c9d1d9" text-anchor="end">$0.270</text><text x="636" y="840" font-size="12" fill="#c9d1d9" text-anchor="end">$1.080</text><text x="742" y="840" font-size="12" fill="#3fb950" text-anchor="end">-55%</text><circle cx="44" cy="856" r="3.5" fill="#56d4dd"/><text x="60" y="860" font-size="12" fill="#c9d1d9">glm-5</text><text x="322" y="860" font-size="12" fill="#6b7080" text-anchor="end">198K</text><text x="402" y="860" font-size="12" fill="#6b7080" text-anchor="end">128K</text><text x="542" y="860" font-size="12" fill="#c9d1d9" text-anchor="end">$0.504</text><text x="636" y="860" font-size="12" fill="#c9d1d9" text-anchor="end">$2.270</text><text x="742" y="860" font-size="12" fill="#3fb950" text-anchor="end">-40%</text><rect x="24" y="866" width="772" height="20" fill="#161b22" opacity="0.55"/><circle cx="44" cy="876" r="3.5" fill="#56d4dd"/><text x="60" y="880" font-size="12" fill="#c9d1d9">glm-5.1</text><text x="322" y="880" font-size="12" fill="#6b7080" text-anchor="end">202K</text><text x="402" y="880" font-size="12" fill="#6b7080" text-anchor="end">128K</text><text x="542" y="880" font-size="12" fill="#c9d1d9" text-anchor="end">$0.726</text><text x="636" y="880" font-size="12" fill="#c9d1d9" text-anchor="end">$2.905</text><text x="742" y="880" font-size="12" fill="#3fb950" text-anchor="end">-35%</text><circle cx="44" cy="896" r="3.5" fill="#56d4dd"/><text x="60" y="900" font-size="12" fill="#c9d1d9">kimi-k2.7-code</text><text x="322" y="900" font-size="12" fill="#6b7080" text-anchor="end">256K</text><text x="402" y="900" font-size="12" fill="#6b7080" text-anchor="end">16K</text><text x="542" y="900" font-size="12" fill="#c9d1d9" text-anchor="end">$0.787</text><text x="636" y="900" font-size="12" fill="#c9d1d9" text-anchor="end">$3.268</text><text x="742" y="900" font-size="12" fill="#3fb950" text-anchor="end">-18%</text><rect x="24" y="906" width="772" height="20" fill="#161b22" opacity="0.55"/><circle cx="44" cy="916" r="3.5" fill="#56d4dd"/><text x="60" y="920" font-size="12" fill="#c9d1d9">qwen3.7-max</text><text x="322" y="920" font-size="12" fill="#6b7080" text-anchor="end">1M</text><text x="402" y="920" font-size="12" fill="#6b7080" text-anchor="end">64K</text><text x="542" y="920" font-size="12" fill="#c9d1d9" text-anchor="end">$0.825</text><text x="636" y="920" font-size="12" fill="#c9d1d9" text-anchor="end">$2.475</text><text x="742" y="920" font-size="12" fill="#3fb950" text-anchor="end">-60%</text><circle cx="44" cy="936" r="3.5" fill="#a78bff"/><text x="60" y="940" font-size="12" fill="#c9d1d9">glm-5.2</text><text x="322" y="940" font-size="12" fill="#6b7080" text-anchor="end">1.0M</text><text x="402" y="940" font-size="12" fill="#6b7080" text-anchor="end">128K</text><text x="542" y="940" font-size="12" fill="#c9d1d9" text-anchor="end">$0.900</text><text x="636" y="940" font-size="12" fill="#c9d1d9" text-anchor="end">$3.000</text><text x="742" y="940" font-size="12" fill="#3fb950" text-anchor="end">-30%</text><rect x="24" y="946" width="772" height="20" fill="#161b22" opacity="0.55"/><circle cx="44" cy="956" r="3.5" fill="#56d4dd"/><text x="60" y="960" font-size="12" fill="#c9d1d9">deepseek-v4-pro</text><text x="322" y="960" font-size="12" fill="#6b7080" text-anchor="end">1M</text><text x="402" y="960" font-size="12" fill="#6b7080" text-anchor="end">384K</text><text x="542" y="960" font-size="12" fill="#c9d1d9" text-anchor="end">$1.452</text><text x="636" y="960" font-size="12" fill="#c9d1d9" text-anchor="end">$2.905</text><text x="742" y="960" font-size="12" fill="#3fb950" text-anchor="end">-15%</text></g><g opacity="0"><animate attributeName="opacity" begin="8.06s" dur="0.3s" to="1" fill="freeze"/><rect x="24" y="966" width="772" height="20" rx="3" fill="#161b22"/><circle cx="34" cy="976" r="4" fill="#6b7080"/><text x="48" y="980" font-size="10.5" fill="#6b7080" letter-spacing="1.5">OPEN · PROXIED</text><text x="792" y="980" font-size="9.5" fill="#6b7080" text-anchor="end">passthrough</text><circle cx="44" cy="996" r="3.5" fill="#6b7080"/><text x="60" y="1000" font-size="12" fill="#c9d1d9">claude-sonnet-5</text><text x="322" y="1000" font-size="12" fill="#6b7080" text-anchor="end">1M</text><text x="402" y="1000" font-size="12" fill="#6b7080" text-anchor="end">128K</text><text x="542" y="1000" font-size="12" fill="#c9d1d9" text-anchor="end">$1.900</text><text x="636" y="1000" font-size="12" fill="#c9d1d9" text-anchor="end">$9.500</text><text x="736" y="1000" font-size="12" fill="#6b7080" text-anchor="end">·</text><rect x="24" y="1006" width="772" height="20" fill="#161b22" opacity="0.55"/><circle cx="44" cy="1016" r="3.5" fill="#6b7080"/><text x="60" y="1020" font-size="12" fill="#c9d1d9">claude-opus-4-8</text><text x="322" y="1020" font-size="12" fill="#6b7080" text-anchor="end">1M</text><text x="402" y="1020" font-size="12" fill="#6b7080" text-anchor="end">128K</text><text x="542" y="1020" font-size="12" fill="#c9d1d9" text-anchor="end">$4.500</text><text x="636" y="1020" font-size="12" fill="#c9d1d9" text-anchor="end">$22.50</text><text x="742" y="1020" font-size="12" fill="#3fb950" text-anchor="end">-10%</text><circle cx="44" cy="1036" r="3.5" fill="#6b7080"/><text x="60" y="1040" font-size="12" fill="#c9d1d9">claude-fable-5</text><text x="322" y="1040" font-size="12" fill="#6b7080" text-anchor="end">1M</text><text x="402" y="1040" font-size="12" fill="#6b7080" text-anchor="end">128K</text><text x="542" y="1040" font-size="12" fill="#c9d1d9" text-anchor="end">$9.000</text><text x="636" y="1040" font-size="12" fill="#c9d1d9" text-anchor="end">$45.00</text><text x="742" y="1040" font-size="12" fill="#3fb950" text-anchor="end">-10%</text></g><g opacity="0"><animate attributeName="opacity" begin="8.32s" dur="0.3s" to="1" fill="freeze"/><text x="44" y="1060" font-size="9.5" fill="#6b7080">media: whisper-large-v3 · z-image-turbo priced per-call (see 02 · 03)</text></g><g opacity="0"><animate attributeName="opacity" begin="8.70s" dur="0.35s" to="1" fill="freeze"/><line x1="24" y1="1118" x2="60" y2="1118" stroke="#56d4dd" stroke-width="2"/><line x1="60" y1="1118" x2="796" y2="1118" stroke="#1f2630" stroke-width="1"/><rect x="24" y="1129" width="4" height="15" rx="1" fill="#56d4dd"/><rect x="26" y="1129" width="2" height="121" fill="#56d4dd" opacity="0.3"/><text x="42" y="1140" font-size="11" fill="#56d4dd" letter-spacing="1">05</text><text x="62" y="1140" font-size="12.5" fill="#c9d1d9" font-weight="700" letter-spacing="2">PARALLEL SUBAGENTS</text><text x="796" y="1140" font-size="10.5" fill="#6b7080" text-anchor="end">spawn_write_subagents ×3 · git worktrees</text></g><g opacity="0"><animate attributeName="opacity" begin="9.05s" dur="0.3s" to="1" fill="freeze"/><text x="44" y="1164" font-size="13" fill="#56d4dd">spawn_write_subagents</text><text x="224" y="1164" font-size="13" fill="#6b7080">3 tasks · isolated worktrees</text></g><g opacity="0"><animate attributeName="opacity" begin="9.31s" dur="0.3s" to="1" fill="freeze"/><text x="44" y="1184" font-size="13" fill="#c9d1d9">wt/landing</text><rect x="180" y="1174" width="200" height="8" rx="2" fill="#161b22"/><rect x="180" y="1174" width="200" height="8" rx="2" fill="#3fb950"/><text x="392" y="1184" font-size="13" fill="#3fb950">✓</text></g><g opacity="0"><animate attributeName="opacity" begin="9.57s" dur="0.3s" to="1" fill="freeze"/><text x="44" y="1204" font-size="13" fill="#c9d1d9">wt/api</text><rect x="180" y="1194" width="200" height="8" rx="2" fill="#161b22"/><rect x="180" y="1194" width="200" height="8" rx="2" fill="#56d4dd"/><text x="392" y="1204" font-size="13" fill="#3fb950">✓</text></g><g opacity="0"><animate attributeName="opacity" begin="9.83s" dur="0.3s" to="1" fill="freeze"/><text x="44" y="1224" font-size="13" fill="#c9d1d9">wt/tests</text><rect x="180" y="1214" width="200" height="8" rx="2" fill="#161b22"/><rect x="180" y="1214" width="200" height="8" rx="2" fill="#3fb950"/><text x="392" y="1224" font-size="13" fill="#3fb950">✓</text></g><g opacity="0"><animate attributeName="opacity" begin="10.09s" dur="0.3s" to="1" fill="freeze"/><text x="44" y="1244" font-size="13" fill="#3fb950">✓ 3 branches merged into the working tree</text></g><g opacity="0"><animate attributeName="opacity" begin="10.47s" dur="0.35s" to="1" fill="freeze"/><line x1="24" y1="1302" x2="60" y2="1302" stroke="#3fb950" stroke-width="2"/><line x1="60" y1="1302" x2="796" y2="1302" stroke="#1f2630" stroke-width="1"/><rect x="24" y="1313" width="4" height="15" rx="1" fill="#3fb950"/><rect x="26" y="1313" width="2" height="101" fill="#3fb950" opacity="0.3"/><text x="42" y="1324" font-size="11" fill="#3fb950" letter-spacing="1">06</text><text x="62" y="1324" font-size="12.5" fill="#c9d1d9" font-weight="700" letter-spacing="2">VERIFIABLE ON-CHAIN</text><text x="796" y="1324" font-size="10.5" fill="#6b7080" text-anchor="end">share · anchor · attest</text></g><g opacity="0"><animate attributeName="opacity" begin="10.82s" dur="0.3s" to="1" fill="freeze"/><text x="44" y="1348" font-size="13" fill="#56d4dd">share</text><text x="90" y="1348" font-size="13" fill="#c9d1d9">→ 0G Storage</text><text x="210" y="1348" font-size="13" fill="#6b7080">root 0xb67f4960…</text></g><g opacity="0"><animate attributeName="opacity" begin="11.08s" dur="0.3s" to="1" fill="freeze"/><text x="44" y="1368" font-size="13" fill="#56d4dd">anchor</text><text x="100" y="1368" font-size="13" fill="#c9d1d9">→ 0G Chain</text><text x="210" y="1368" font-size="13" fill="#6b7080">tx 0xa2348022…</text></g><g opacity="0"><animate attributeName="opacity" begin="11.34s" dur="0.3s" to="1" fill="freeze"/><text x="44" y="1388" font-size="13" fill="#56d4dd">attest</text><text x="100" y="1388" font-size="13" fill="#c9d1d9">→ 0G node</text><text x="210" y="1388" font-size="13" fill="#c9d1d9">0x4870Cb…5FE77a4E9</text></g><g opacity="0"><animate attributeName="opacity" begin="11.60s" dur="0.3s" to="1" fill="freeze"/><text x="44" y="1408" font-size="13" fill="#3fb950">✓ verifiable: model + hash + provider node signed by 0G (TEE)</text></g>
  <g opacity="0"><animate attributeName="opacity" begin="11.98s" dur="0.3s" to="1" fill="freeze"/><text x="24" y="1446" font-size="11" fill="#6b7080">No OpenAI or Anthropic key. Every token private and verifiable on 0G Compute (TEE).</text></g>
</svg>
